<svg width="25" height="25" viewBox="0 0 25 25" fill="none" xmlns="http://www.w3.org/2000/svg">
<mask id="mask0_41958_6706" style="mask-type:alpha" maskUnits="userSpaceOnUse" x="0" y="0" width="25" height="25">
<rect x="0.199219" y="0.9375" width="24" height="24" fill="#D9D9D9"/>
</mask>
<g mask="url(#mask0_41958_6706)">
<path d="M1.19922 20.9375V16.9375C1.19922 16.3708 1.39505 15.8958 1.78672 15.5125C2.17839 15.1292 2.64922 14.9375 3.19922 14.9375H6.47422C6.80755 14.9375 7.12422 15.0208 7.42422 15.1875C7.72422 15.3542 7.96589 15.5792 8.14922 15.8625C8.63255 16.5125 9.22839 17.0208 9.93672 17.3875C10.6451 17.7542 11.3992 17.9375 12.1992 17.9375C13.0159 17.9375 13.7784 17.7542 14.4867 17.3875C15.1951 17.0208 15.7826 16.5125 16.2492 15.8625C16.4659 15.5792 16.7201 15.3542 17.0117 15.1875C17.3034 15.0208 17.6076 14.9375 17.9242 14.9375H21.1992C21.7659 14.9375 22.2409 15.1292 22.6242 15.5125C23.0076 15.8958 23.1992 16.3708 23.1992 16.9375V20.9375H16.1992V18.6625C15.6159 19.0792 14.9867 19.3958 14.3117 19.6125C13.6367 19.8292 12.9326 19.9375 12.1992 19.9375C11.4826 19.9375 10.7826 19.825 10.0992 19.6C9.41589 19.375 8.78255 19.0542 8.19922 18.6375V20.9375H1.19922ZM12.1992 16.9375C11.5659 16.9375 10.9659 16.7917 10.3992 16.5C9.83255 16.2083 9.35755 15.8042 8.97422 15.2875C8.69089 14.8708 8.33672 14.5417 7.91172 14.3C7.48672 14.0583 7.02422 13.9375 6.52422 13.9375C6.89089 13.3208 7.66589 12.8333 8.84922 12.475C10.0326 12.1167 11.1492 11.9375 12.1992 11.9375C13.2492 11.9375 14.3659 12.1167 15.5492 12.475C16.7326 12.8333 17.5076 13.3208 17.8742 13.9375C17.3909 13.9375 16.9326 14.0583 16.4992 14.3C16.0659 14.5417 15.7076 14.8708 15.4242 15.2875C15.0576 15.8208 14.5909 16.2292 14.0242 16.5125C13.4576 16.7958 12.8492 16.9375 12.1992 16.9375ZM4.19922 13.9375C3.36589 13.9375 2.65755 13.6458 2.07422 13.0625C1.49089 12.4792 1.19922 11.7708 1.19922 10.9375C1.19922 10.0875 1.49089 9.375 2.07422 8.8C2.65755 8.225 3.36589 7.9375 4.19922 7.9375C5.04922 7.9375 5.76172 8.225 6.33672 8.8C6.91172 9.375 7.19922 10.0875 7.19922 10.9375C7.19922 11.7708 6.91172 12.4792 6.33672 13.0625C5.76172 13.6458 5.04922 13.9375 4.19922 13.9375ZM20.1992 13.9375C19.3659 13.9375 18.6576 13.6458 18.0742 13.0625C17.4909 12.4792 17.1992 11.7708 17.1992 10.9375C17.1992 10.0875 17.4909 9.375 18.0742 8.8C18.6576 8.225 19.3659 7.9375 20.1992 7.9375C21.0492 7.9375 21.7617 8.225 22.3367 8.8C22.9117 9.375 23.1992 10.0875 23.1992 10.9375C23.1992 11.7708 22.9117 12.4792 22.3367 13.0625C21.7617 13.6458 21.0492 13.9375 20.1992 13.9375ZM12.1992 10.9375C11.3659 10.9375 10.6576 10.6458 10.0742 10.0625C9.49089 9.47917 9.19922 8.77083 9.19922 7.9375C9.19922 7.0875 9.49089 6.375 10.0742 5.8C10.6576 5.225 11.3659 4.9375 12.1992 4.9375C13.0492 4.9375 13.7617 5.225 14.3367 5.8C14.9117 6.375 15.1992 7.0875 15.1992 7.9375C15.1992 8.77083 14.9117 9.47917 14.3367 10.0625C13.7617 10.6458 13.0492 10.9375 12.1992 10.9375Z" fill="#64C66B"/>
</g>
</svg>
