<svg width="24" height="25" viewBox="0 0 24 25" fill="none" xmlns="http://www.w3.org/2000/svg">
<mask id="mask0_41958_40212" style="mask-type:alpha" maskUnits="userSpaceOnUse" x="0" y="0" width="24" height="25">
<rect y="0.9375" width="24" height="24" fill="#D9D9D9"/>
</mask>
<g mask="url(#mask0_41958_40212)">
<path d="M12 22.9375C10.6167 22.9375 9.31667 22.675 8.1 22.15C6.88333 21.625 5.825 20.9125 4.925 20.0125C4.025 19.1125 3.3125 18.0542 2.7875 16.8375C2.2625 15.6208 2 14.3208 2 12.9375C2 11.5542 2.2625 10.2542 2.7875 9.0375C3.3125 7.82083 4.025 6.7625 4.925 5.8625C5.825 4.9625 6.88333 4.25 8.1 3.725C9.31667 3.2 10.6167 2.9375 12 2.9375C13.3833 2.9375 14.6833 3.2 15.9 3.725C17.1167 4.25 18.175 4.9625 19.075 5.8625C19.975 6.7625 20.6875 7.82083 21.2125 9.0375C21.7375 10.2542 22 11.5542 22 12.9375C22 14.3208 21.7375 15.6208 21.2125 16.8375C20.6875 18.0542 19.975 19.1125 19.075 20.0125C18.175 20.9125 17.1167 21.625 15.9 22.15C14.6833 22.675 13.3833 22.9375 12 22.9375ZM11 20.8375V17.8375C10 17.6375 9.15 17.1875 8.45 16.4875C7.75 15.7875 7.3 14.9375 7.1 13.9375H4.1C4.3 15.7542 5.04583 17.2958 6.3375 18.5625C7.62917 19.8292 9.18333 20.5875 11 20.8375ZM13 20.8375C14.8167 20.6375 16.3708 19.8917 17.6625 18.6C18.9542 17.3083 19.7 15.7542 19.9 13.9375H16.9C16.7 14.9375 16.25 15.7875 15.55 16.4875C14.85 17.1875 14 17.6375 13 17.8375V20.8375ZM4.1 11.9375H7L10 8.9375H14L17 11.9375H19.9C19.65 9.92083 18.775 8.25 17.275 6.925C15.775 5.6 14.0167 4.9375 12 4.9375C9.98333 4.9375 8.225 5.6 6.725 6.925C5.225 8.25 4.35 9.92083 4.1 11.9375Z" fill="#64C66B"/>
</g>
</svg>
