<svg width="25" height="25" viewBox="0 0 25 25" fill="none" xmlns="http://www.w3.org/2000/svg">
<mask id="mask0_41958_25818" style="mask-type:alpha" maskUnits="userSpaceOnUse" x="0" y="0" width="25" height="25">
<rect x="0.599609" y="0.9375" width="24" height="24" fill="#D9D9D9"/>
</mask>
<g mask="url(#mask0_41958_25818)">
<path d="M6.59961 23.9375V15.7125L3.34961 10.4375L7.97461 2.9375H17.2246L21.8496 10.4375L18.5996 15.7125V23.9375L12.5996 21.9375L6.59961 23.9375ZM8.59961 21.1625L12.5996 19.8375L16.5996 21.1625V17.9375H8.59961V21.1625ZM9.09961 4.9375L5.69961 10.4375L9.09961 15.9375H16.0996L19.4996 10.4375L16.0996 4.9375H9.09961ZM11.5496 14.5125L7.99961 10.9875L9.42461 9.5625L11.5496 11.6875L15.7746 7.4375L17.1996 8.8375L11.5496 14.5125Z" fill="#64C66B"/>
</g>
</svg>
