<svg width="92" height="92" viewBox="0 0 92 92" fill="none" xmlns="http://www.w3.org/2000/svg">
<rect width="92" height="92" rx="46" fill="#B0C0FF"/>
<mask id="mask0_44034_10295" style="mask-type:alpha" maskUnits="userSpaceOnUse" x="26" y="26" width="40" height="40">
<rect x="26" y="26" width="40" height="40" fill="#D9D9D9"/>
</mask>
<g mask="url(#mask0_44034_10295)">
<path d="M46.7917 54.0413L60.7501 40.083L58.5834 37.9163L44.6251 51.8747L46.7917 54.0413ZM35.9167 57.6663C33.139 57.5275 31.0695 56.9441 29.7084 55.9163C28.3473 54.8886 27.6667 53.4025 27.6667 51.458C27.6667 49.6525 28.4098 48.1872 29.8959 47.0622C31.382 45.9372 33.4445 45.2636 36.0834 45.0413C37.1667 44.958 37.9792 44.7844 38.5209 44.5205C39.0626 44.2566 39.3334 43.8886 39.3334 43.4163C39.3334 42.6941 38.9237 42.1525 38.1042 41.7913C37.2848 41.4302 35.9306 41.1663 34.0417 40.9997L34.3334 37.6663C37.1945 37.8886 39.2987 38.465 40.6459 39.3955C41.9931 40.3261 42.6667 41.6663 42.6667 43.4163C42.6667 44.8886 42.132 46.0413 41.0626 46.8747C39.9931 47.708 38.4167 48.208 36.3334 48.3747C34.5556 48.5136 33.2223 48.84 32.3334 49.3538C31.4445 49.8677 31.0001 50.5691 31.0001 51.458C31.0001 52.4302 31.389 53.1316 32.1667 53.5622C32.9445 53.9927 34.2501 54.2497 36.0834 54.333L35.9167 57.6663ZM47.5834 57.958L40.7084 51.083L56.6251 35.1663C57.1806 34.6108 57.8404 34.333 58.6042 34.333C59.3681 34.333 60.0279 34.6108 60.5834 35.1663L63.5001 38.083C64.0556 38.6386 64.3334 39.2983 64.3334 40.0622C64.3334 40.8261 64.0556 41.4858 63.5001 42.0413L47.5834 57.958ZM40.9584 59.333C40.4862 59.4441 40.0695 59.3191 39.7084 58.958C39.3473 58.5969 39.2223 58.1802 39.3334 57.708L40.7084 51.083L47.5834 57.958L40.9584 59.333Z" fill="#3F65FF"/>
</g>
</svg>
