<svg width="92" height="92" viewBox="0 0 92 92" fill="none" xmlns="http://www.w3.org/2000/svg">
<rect width="92" height="92" rx="46" fill="#B0C0FF"/>
<mask id="mask0_44034_10304" style="mask-type:alpha" maskUnits="userSpaceOnUse" x="26" y="26" width="40" height="40">
<rect x="26" y="26" width="40" height="40" fill="#D9D9D9"/>
</mask>
<g mask="url(#mask0_44034_10304)">
<path d="M32.6666 56.0003V36.0003V57.667V56.0003ZM32.6666 59.3337C31.7499 59.3337 30.9652 59.0073 30.3124 58.3545C29.6596 57.7017 29.3333 56.917 29.3333 56.0003V36.0003C29.3333 35.0837 29.6596 34.2989 30.3124 33.6462C30.9652 32.9934 31.7499 32.667 32.6666 32.667H42.6666L45.9999 36.0003H59.3333C60.2499 36.0003 61.0346 36.3267 61.6874 36.9795C62.3402 37.6323 62.6666 38.417 62.6666 39.3337V47.667H59.3333V39.3337H44.6249L41.2916 36.0003H32.6666V56.0003H40.9999V59.3337H32.6666ZM50.3333 63.667L44.3333 57.667L50.3333 51.667L52.6666 54.042L49.0416 57.667L52.6666 61.292L50.3333 63.667ZM58.3333 63.667L55.9999 61.292L59.6249 57.667L55.9999 54.042L58.3333 51.667L64.3333 57.667L58.3333 63.667Z" fill="#3F65FF"/>
</g>
</svg>
