<svg width="92" height="92" viewBox="0 0 92 92" fill="none" xmlns="http://www.w3.org/2000/svg">
<rect width="92" height="92" rx="46" fill="#B0C0FF"/>
<mask id="mask0_44034_10313" style="mask-type:alpha" maskUnits="userSpaceOnUse" x="26" y="26" width="40" height="40">
<rect x="26" y="26" width="40" height="40" fill="#D9D9D9"/>
</mask>
<g mask="url(#mask0_44034_10313)">
<path d="M44.3333 61V57.6667H57.6666V45.8333C57.6666 42.5833 56.5346 39.8264 54.2708 37.5625C52.0069 35.2986 49.2499 34.1667 45.9999 34.1667C42.7499 34.1667 39.993 35.2986 37.7291 37.5625C35.4652 39.8264 34.3333 42.5833 34.3333 45.8333V56H32.6666C31.7499 56 30.9652 55.6736 30.3124 55.0208C29.6596 54.3681 29.3333 53.5833 29.3333 52.6667V49.3333C29.3333 48.75 29.4791 48.2014 29.7708 47.6875C30.0624 47.1736 30.4721 46.7639 30.9999 46.4583L31.1249 44.25C31.3471 42.3611 31.8958 40.6111 32.7708 39C33.6458 37.3889 34.743 35.9861 36.0624 34.7917C37.3819 33.5972 38.8958 32.6667 40.6041 32C42.3124 31.3333 44.111 31 45.9999 31C47.8888 31 49.6805 31.3333 51.3749 32C53.0694 32.6667 54.5833 33.5903 55.9166 34.7708C57.2499 35.9514 58.3471 37.3472 59.2083 38.9583C60.0694 40.5694 60.6249 42.3194 60.8749 44.2083L60.9999 46.375C61.5277 46.625 61.9374 47 62.2291 47.5C62.5208 48 62.6666 48.5278 62.6666 49.0833V52.9167C62.6666 53.4722 62.5208 54 62.2291 54.5C61.9374 55 61.5277 55.375 60.9999 55.625V57.6667C60.9999 58.5833 60.6735 59.3681 60.0208 60.0208C59.368 60.6736 58.5833 61 57.6666 61H44.3333ZM40.9999 49.3333C40.5277 49.3333 40.1319 49.1736 39.8124 48.8542C39.493 48.5347 39.3333 48.1389 39.3333 47.6667C39.3333 47.1944 39.493 46.7986 39.8124 46.4792C40.1319 46.1597 40.5277 46 40.9999 46C41.4721 46 41.868 46.1597 42.1874 46.4792C42.5069 46.7986 42.6666 47.1944 42.6666 47.6667C42.6666 48.1389 42.5069 48.5347 42.1874 48.8542C41.868 49.1736 41.4721 49.3333 40.9999 49.3333ZM50.9999 49.3333C50.5277 49.3333 50.1319 49.1736 49.8124 48.8542C49.493 48.5347 49.3333 48.1389 49.3333 47.6667C49.3333 47.1944 49.493 46.7986 49.8124 46.4792C50.1319 46.1597 50.5277 46 50.9999 46C51.4721 46 51.868 46.1597 52.1874 46.4792C52.5069 46.7986 52.6666 47.1944 52.6666 47.6667C52.6666 48.1389 52.5069 48.5347 52.1874 48.8542C51.868 49.1736 51.4721 49.3333 50.9999 49.3333ZM36.0416 46.75C35.8471 43.8056 36.736 41.2778 38.7083 39.1667C40.6805 37.0556 43.1388 36 46.0833 36C48.5555 36 50.7291 36.7847 52.6041 38.3542C54.4791 39.9236 55.611 41.9306 55.9999 44.375C53.4721 44.3472 51.1458 43.6667 49.0208 42.3333C46.8958 41 45.2638 39.1944 44.1249 36.9167C43.6805 39.1389 42.743 41.1181 41.3124 42.8542C39.8819 44.5903 38.1249 45.8889 36.0416 46.75Z" fill="#3F65FF"/>
</g>
</svg>
