<svg width="33" height="32" viewBox="0 0 33 32" fill="none" xmlns="http://www.w3.org/2000/svg">
<mask id="mask0_41921_945" style="mask-type:alpha" maskUnits="userSpaceOnUse" x="0" y="0" width="33" height="32">
<rect x="0.5" width="32" height="32" fill="#D9D9D9"/>
</mask>
<g mask="url(#mask0_41921_945)">
<path d="M16.5007 12.0003L11.834 7.33366L16.5007 2.66699L21.1673 7.33366L16.5007 12.0003ZM1.83398 26.667V21.3337C1.83398 20.5781 2.0951 19.9448 2.61732 19.4337C3.13954 18.9225 3.76732 18.667 4.50065 18.667H8.86732C9.31176 18.667 9.73398 18.7781 10.134 19.0003C10.534 19.2225 10.8562 19.5225 11.1007 19.9003C11.7451 20.767 12.5395 21.4448 13.484 21.9337C14.4284 22.4225 15.434 22.667 16.5007 22.667C17.5895 22.667 18.6062 22.4225 19.5507 21.9337C20.4951 21.4448 21.2784 20.767 21.9007 19.9003C22.1895 19.5225 22.5284 19.2225 22.9173 19.0003C23.3062 18.7781 23.7118 18.667 24.134 18.667H28.5006C29.2562 18.667 29.8895 18.9225 30.4007 19.4337C30.9118 19.9448 31.1673 20.5781 31.1673 21.3337V26.667H21.834V23.6337C21.0562 24.1892 20.2173 24.6114 19.3173 24.9003C18.4173 25.1892 17.4784 25.3337 16.5007 25.3337C15.5451 25.3337 14.6118 25.1837 13.7007 24.8837C12.7895 24.5837 11.9451 24.1559 11.1673 23.6003V26.667H1.83398ZM5.83398 17.3337C4.72287 17.3337 3.77843 16.9448 3.00065 16.167C2.22287 15.3892 1.83398 14.4448 1.83398 13.3337C1.83398 12.2003 2.22287 11.2503 3.00065 10.4837C3.77843 9.71699 4.72287 9.33366 5.83398 9.33366C6.96732 9.33366 7.91732 9.71699 8.68398 10.4837C9.45065 11.2503 9.83398 12.2003 9.83398 13.3337C9.83398 14.4448 9.45065 15.3892 8.68398 16.167C7.91732 16.9448 6.96732 17.3337 5.83398 17.3337ZM27.1673 17.3337C26.0562 17.3337 25.1118 16.9448 24.334 16.167C23.5562 15.3892 23.1673 14.4448 23.1673 13.3337C23.1673 12.2003 23.5562 11.2503 24.334 10.4837C25.1118 9.71699 26.0562 9.33366 27.1673 9.33366C28.3006 9.33366 29.2507 9.71699 30.0173 10.4837C30.784 11.2503 31.1673 12.2003 31.1673 13.3337C31.1673 14.4448 30.784 15.3892 30.0173 16.167C29.2507 16.9448 28.3006 17.3337 27.1673 17.3337Z" fill="#64C66B"/>
</g>
</svg>
