<svg width="33" height="32" viewBox="0 0 33 32" fill="none" xmlns="http://www.w3.org/2000/svg">
<mask id="mask0_41921_2066" style="mask-type:alpha" maskUnits="userSpaceOnUse" x="0" y="0" width="33" height="32">
<rect x="0.5" width="32" height="32" fill="#D9D9D9"/>
</mask>
<g mask="url(#mask0_41921_2066)">
<path d="M23.9007 15.9997L19.1673 11.2663L21.0673 9.39967L23.9007 12.233L29.5673 6.56634L31.434 8.46634L23.9007 15.9997ZM12.5007 15.9997C11.034 15.9997 9.77843 15.4775 8.73398 14.433C7.68954 13.3886 7.16732 12.133 7.16732 10.6663C7.16732 9.19967 7.68954 7.94412 8.73398 6.89967C9.77843 5.85523 11.034 5.33301 12.5007 5.33301C13.9673 5.33301 15.2229 5.85523 16.2673 6.89967C17.3118 7.94412 17.834 9.19967 17.834 10.6663C17.834 12.133 17.3118 13.3886 16.2673 14.433C15.2229 15.4775 13.9673 15.9997 12.5007 15.9997ZM1.83398 26.6663V22.933C1.83398 22.1775 2.02843 21.483 2.41732 20.8497C2.80621 20.2163 3.32287 19.733 3.96732 19.3997C5.3451 18.7108 6.7451 18.1941 8.16732 17.8497C9.58954 17.5052 11.034 17.333 12.5007 17.333C13.9673 17.333 15.4118 17.5052 16.834 17.8497C18.2562 18.1941 19.6562 18.7108 21.034 19.3997C21.6784 19.733 22.1951 20.2163 22.584 20.8497C22.9729 21.483 23.1673 22.1775 23.1673 22.933V26.6663H1.83398ZM4.50065 23.9997H20.5006V22.933C20.5006 22.6886 20.4395 22.4663 20.3173 22.2663C20.1951 22.0663 20.034 21.9108 19.834 21.7997C18.634 21.1997 17.4229 20.7497 16.2007 20.4497C14.9784 20.1497 13.7451 19.9997 12.5007 19.9997C11.2562 19.9997 10.0229 20.1497 8.80065 20.4497C7.57843 20.7497 6.36732 21.1997 5.16732 21.7997C4.96732 21.9108 4.80621 22.0663 4.68398 22.2663C4.56176 22.4663 4.50065 22.6886 4.50065 22.933V23.9997ZM12.5007 13.333C13.234 13.333 13.8618 13.0719 14.384 12.5497C14.9062 12.0275 15.1673 11.3997 15.1673 10.6663C15.1673 9.93301 14.9062 9.30523 14.384 8.78301C13.8618 8.26079 13.234 7.99967 12.5007 7.99967C11.7673 7.99967 11.1395 8.26079 10.6173 8.78301C10.0951 9.30523 9.83398 9.93301 9.83398 10.6663C9.83398 11.3997 10.0951 12.0275 10.6173 12.5497C11.1395 13.0719 11.7673 13.333 12.5007 13.333Z" fill="#64C66B"/>
</g>
</svg>
