<svg width="32" height="32" viewBox="0 0 32 32" fill="none" xmlns="http://www.w3.org/2000/svg">
<mask id="mask0_41977_164" style="mask-type:alpha" maskUnits="userSpaceOnUse" x="0" y="0" width="32" height="32">
<rect width="32" height="32" fill="#D9D9D9"/>
</mask>
<g mask="url(#mask0_41977_164)">
<path d="M9.33301 26.6654C8.59967 26.6654 7.9719 26.4043 7.44967 25.882C6.92745 25.3598 6.66634 24.732 6.66634 23.9987V11.6654L1.33301 5.33203H26.6663C27.3997 5.33203 28.0275 5.59314 28.5497 6.11536C29.0719 6.63759 29.333 7.26536 29.333 7.9987V23.9987C29.333 24.732 29.0719 25.3598 28.5497 25.882C28.0275 26.4043 27.3997 26.6654 26.6663 26.6654H9.33301ZM7.06634 7.9987L9.33301 10.6654V23.9987H26.6663V7.9987H7.06634ZM17.9997 23.332L19.8663 21.4654L18.3997 19.9987H23.9997V17.332H11.9997L17.9997 23.332ZM11.9997 14.6654H23.9997L17.9997 8.66536L16.133 10.532L17.5997 11.9987H11.9997V14.6654Z" fill="#278F2E"/>
</g>
</svg>
