<svg width="32" height="32" viewBox="0 0 32 32" fill="none" xmlns="http://www.w3.org/2000/svg">
<mask id="mask0_41977_8258" style="mask-type:alpha" maskUnits="userSpaceOnUse" x="0" y="0" width="32" height="32">
<rect width="32" height="32" fill="#D9D9D9"/>
</mask>
<g mask="url(#mask0_41977_8258)">
<path d="M16.633 22.4346L27.7997 11.268L26.0663 9.53464L14.8997 20.7013L16.633 22.4346ZM7.93301 25.3346C5.71079 25.2235 4.05523 24.7569 2.96634 23.9346C1.87745 23.1124 1.33301 21.9235 1.33301 20.368C1.33301 18.9235 1.92745 17.7513 3.11634 16.8513C4.30523 15.9513 5.95523 15.4124 8.06634 15.2346C8.93301 15.168 9.58301 15.0291 10.0163 14.818C10.4497 14.6069 10.6663 14.3124 10.6663 13.9346C10.6663 13.3569 10.3386 12.9235 9.68301 12.6346C9.02745 12.3457 7.94412 12.1346 6.43301 12.0013L6.66634 9.33464C8.95523 9.51241 10.6386 9.97352 11.7163 10.718C12.7941 11.4624 13.333 12.5346 13.333 13.9346C13.333 15.1124 12.9052 16.0346 12.0497 16.7013C11.1941 17.368 9.93301 17.768 8.26634 17.9013C6.84412 18.0124 5.77745 18.2735 5.06634 18.6846C4.35523 19.0957 3.99967 19.6569 3.99967 20.368C3.99967 21.1457 4.31079 21.7069 4.93301 22.0513C5.55523 22.3957 6.59967 22.6013 8.06634 22.668L7.93301 25.3346ZM17.2663 25.568L11.7663 20.068L24.4997 7.33464C24.9441 6.89019 25.4719 6.66797 26.083 6.66797C26.6941 6.66797 27.2219 6.89019 27.6663 7.33464L29.9997 9.66797C30.4441 10.1124 30.6663 10.6402 30.6663 11.2513C30.6663 11.8624 30.4441 12.3902 29.9997 12.8346L17.2663 25.568ZM11.9663 26.668C11.5886 26.7569 11.2552 26.6569 10.9663 26.368C10.6775 26.0791 10.5775 25.7457 10.6663 25.368L11.7663 20.068L17.2663 25.568L11.9663 26.668Z" fill="#278F2E"/>
</g>
</svg>
