<svg width="32" height="32" viewBox="0 0 32 32" fill="none" xmlns="http://www.w3.org/2000/svg">
<mask id="mask0_41977_8215" style="mask-type:alpha" maskUnits="userSpaceOnUse" x="0" y="0" width="32" height="32">
<rect width="32" height="32" fill="#D9D9D9"/>
</mask>
<g mask="url(#mask0_41977_8215)">
<path d="M22.667 28.032C22.4892 28.032 22.3114 28.0098 22.1337 27.9654C21.9559 27.9209 21.7892 27.8431 21.6337 27.732L17.6337 25.3987C17.3225 25.2209 17.0837 24.982 16.917 24.682C16.7503 24.382 16.667 24.0543 16.667 23.6987V18.9987C16.667 18.6431 16.7503 18.3154 16.917 18.0154C17.0837 17.7154 17.3225 17.4765 17.6337 17.2987L21.6337 14.9654C21.7892 14.8543 21.9559 14.7765 22.1337 14.732C22.3114 14.6876 22.4892 14.6654 22.667 14.6654C22.8448 14.6654 23.017 14.6931 23.1837 14.7487C23.3503 14.8043 23.5114 14.8765 23.667 14.9654L27.667 17.2987C27.9781 17.4765 28.2226 17.7154 28.4003 18.0154C28.5781 18.3154 28.667 18.6431 28.667 18.9987V23.6987C28.667 24.0543 28.5781 24.382 28.4003 24.682C28.2226 24.982 27.9781 25.2209 27.667 25.3987L23.667 27.732C23.5114 27.8209 23.3503 27.8931 23.1837 27.9487C23.017 28.0043 22.8448 28.032 22.667 28.032ZM13.3337 15.9987C11.867 15.9987 10.6114 15.4765 9.56699 14.432C8.52255 13.3876 8.00033 12.132 8.00033 10.6654C8.00033 9.1987 8.52255 7.94314 9.56699 6.8987C10.6114 5.85425 11.867 5.33203 13.3337 5.33203C14.8003 5.33203 16.0559 5.85425 17.1003 6.8987C18.1448 7.94314 18.667 9.1987 18.667 10.6654C18.667 12.132 18.1448 13.3876 17.1003 14.432C16.0559 15.4765 14.8003 15.9987 13.3337 15.9987ZM2.66699 26.6654V22.932C2.66699 22.1987 2.85588 21.5098 3.23366 20.8654C3.61144 20.2209 4.13366 19.732 4.80033 19.3987C5.93366 18.8209 7.21144 18.332 8.63366 17.932C10.0559 17.532 11.6225 17.332 13.3337 17.332H13.8003C13.9337 17.332 14.067 17.3543 14.2003 17.3987C14.0225 17.7987 13.8725 18.2154 13.7503 18.6487C13.6281 19.082 13.5337 19.532 13.467 19.9987H13.3337C11.7559 19.9987 10.3392 20.1987 9.08366 20.5987C7.8281 20.9987 6.80033 21.3987 6.00033 21.7987C5.80033 21.9098 5.63921 22.0654 5.51699 22.2654C5.39477 22.4654 5.33366 22.6876 5.33366 22.932V23.9987H13.7337C13.867 24.4654 14.0448 24.9265 14.267 25.382C14.4892 25.8376 14.7337 26.2654 15.0003 26.6654H2.66699ZM13.3337 13.332C14.067 13.332 14.6948 13.0709 15.217 12.5487C15.7392 12.0265 16.0003 11.3987 16.0003 10.6654C16.0003 9.93203 15.7392 9.30425 15.217 8.78203C14.6948 8.25981 14.067 7.9987 13.3337 7.9987C12.6003 7.9987 11.9725 8.25981 11.4503 8.78203C10.9281 9.30425 10.667 9.93203 10.667 10.6654C10.667 11.3987 10.9281 12.0265 11.4503 12.5487C11.9725 13.0709 12.6003 13.332 13.3337 13.332ZM19.5337 18.4654L22.667 20.2987L25.8003 18.4654L22.667 16.6654L19.5337 18.4654ZM23.667 25.3987L26.667 23.6654V19.9987L23.667 21.7654V25.3987ZM18.667 23.6654L21.667 25.432V21.7987L18.667 20.032V23.6654Z" fill="#278F2E"/>
</g>
</svg>
