<svg width="32" height="32" viewBox="0 0 32 32" fill="none" xmlns="http://www.w3.org/2000/svg">
<mask id="mask0_41977_40170" style="mask-type:alpha" maskUnits="userSpaceOnUse" x="0" y="0" width="32" height="32">
<rect width="32" height="32" fill="#D9D9D9"/>
</mask>
<g mask="url(#mask0_41977_40170)">
<path d="M1.33301 26.6654V21.332C1.33301 20.5765 1.59412 19.9431 2.11634 19.432C2.63856 18.9209 3.26634 18.6654 3.99967 18.6654H8.36634C8.81079 18.6654 9.23301 18.7765 9.63301 18.9987C10.033 19.2209 10.3552 19.5209 10.5997 19.8987C11.2441 20.7654 12.0386 21.4431 12.983 21.932C13.9275 22.4209 14.933 22.6654 15.9997 22.6654C17.0886 22.6654 18.1052 22.4209 19.0497 21.932C19.9941 21.4431 20.7775 20.7654 21.3997 19.8987C21.6886 19.5209 22.0275 19.2209 22.4163 18.9987C22.8052 18.7765 23.2108 18.6654 23.633 18.6654H27.9997C28.7552 18.6654 29.3886 18.9209 29.8997 19.432C30.4108 19.9431 30.6663 20.5765 30.6663 21.332V26.6654H21.333V23.632C20.5552 24.1876 19.7163 24.6098 18.8163 24.8987C17.9163 25.1876 16.9775 25.332 15.9997 25.332C15.0441 25.332 14.1108 25.182 13.1997 24.882C12.2886 24.582 11.4441 24.1543 10.6663 23.5987V26.6654H1.33301ZM15.9997 21.332C15.1552 21.332 14.3552 21.1376 13.5997 20.7487C12.8441 20.3598 12.2108 19.8209 11.6997 19.132C11.3219 18.5765 10.8497 18.1376 10.283 17.8154C9.71634 17.4931 9.09967 17.332 8.43301 17.332C8.9219 16.5098 9.95523 15.8598 11.533 15.382C13.1108 14.9043 14.5997 14.6654 15.9997 14.6654C17.3997 14.6654 18.8886 14.9043 20.4663 15.382C22.0441 15.8598 23.0775 16.5098 23.5663 17.332C22.9219 17.332 22.3108 17.4931 21.733 17.8154C21.1552 18.1376 20.6775 18.5765 20.2997 19.132C19.8108 19.8431 19.1886 20.3876 18.433 20.7654C17.6775 21.1431 16.8663 21.332 15.9997 21.332ZM5.33301 17.332C4.2219 17.332 3.27745 16.9431 2.49967 16.1654C1.7219 15.3876 1.33301 14.4431 1.33301 13.332C1.33301 12.1987 1.7219 11.2487 2.49967 10.482C3.27745 9.71536 4.2219 9.33203 5.33301 9.33203C6.46634 9.33203 7.41634 9.71536 8.18301 10.482C8.94967 11.2487 9.33301 12.1987 9.33301 13.332C9.33301 14.4431 8.94967 15.3876 8.18301 16.1654C7.41634 16.9431 6.46634 17.332 5.33301 17.332ZM26.6663 17.332C25.5552 17.332 24.6108 16.9431 23.833 16.1654C23.0552 15.3876 22.6663 14.4431 22.6663 13.332C22.6663 12.1987 23.0552 11.2487 23.833 10.482C24.6108 9.71536 25.5552 9.33203 26.6663 9.33203C27.7997 9.33203 28.7497 9.71536 29.5163 10.482C30.283 11.2487 30.6663 12.1987 30.6663 13.332C30.6663 14.4431 30.283 15.3876 29.5163 16.1654C28.7497 16.9431 27.7997 17.332 26.6663 17.332ZM15.9997 13.332C14.8886 13.332 13.9441 12.9431 13.1663 12.1654C12.3886 11.3876 11.9997 10.4431 11.9997 9.33203C11.9997 8.1987 12.3886 7.2487 13.1663 6.48203C13.9441 5.71536 14.8886 5.33203 15.9997 5.33203C17.133 5.33203 18.083 5.71536 18.8497 6.48203C19.6163 7.2487 19.9997 8.1987 19.9997 9.33203C19.9997 10.4431 19.6163 11.3876 18.8497 12.1654C18.083 12.9431 17.133 13.332 15.9997 13.332Z" fill="#278F2E"/>
</g>
</svg>
