<svg width="56" height="56" viewBox="0 0 56 56" fill="none" xmlns="http://www.w3.org/2000/svg">
<rect width="56" height="56" rx="28" fill="#64C66B"/>
<mask id="mask0_44034_9472" style="mask-type:alpha" maskUnits="userSpaceOnUse" x="8" y="8" width="40" height="40">
<rect x="8" y="8" width="40" height="40" fill="#D9D9D9"/>
</mask>
<g mask="url(#mask0_44034_9472)">
<path d="M23 43C21.1667 43 19.5972 42.3472 18.2917 41.0417C16.9861 39.7361 16.3333 38.1667 16.3333 36.3333V22.7083C15.3611 22.3472 14.5625 21.7431 13.9375 20.8958C13.3125 20.0486 13 19.0833 13 18C13 16.6111 13.4861 15.4306 14.4583 14.4583C15.4306 13.4861 16.6111 13 18 13C19.3889 13 20.5694 13.4861 21.5417 14.4583C22.5139 15.4306 23 16.6111 23 18C23 19.0833 22.6875 20.0486 22.0625 20.8958C21.4375 21.7431 20.6389 22.3472 19.6667 22.7083V36.3333C19.6667 37.25 19.9931 38.0347 20.6458 38.6875C21.2986 39.3403 22.0833 39.6667 23 39.6667C23.9167 39.6667 24.7014 39.3403 25.3542 38.6875C26.0069 38.0347 26.3333 37.25 26.3333 36.3333V19.6667C26.3333 17.8333 26.9861 16.2639 28.2917 14.9583C29.5972 13.6528 31.1667 13 33 13C34.8333 13 36.4028 13.6528 37.7083 14.9583C39.0139 16.2639 39.6667 17.8333 39.6667 19.6667V33.2917C40.6389 33.6528 41.4375 34.2569 42.0625 35.1042C42.6875 35.9514 43 36.9167 43 38C43 39.3889 42.5139 40.5694 41.5417 41.5417C40.5694 42.5139 39.3889 43 38 43C36.6111 43 35.4306 42.5139 34.4583 41.5417C33.4861 40.5694 33 39.3889 33 38C33 36.9167 33.3125 35.9444 33.9375 35.0833C34.5625 34.2222 35.3611 33.625 36.3333 33.2917V19.6667C36.3333 18.75 36.0069 17.9653 35.3542 17.3125C34.7014 16.6597 33.9167 16.3333 33 16.3333C32.0833 16.3333 31.2986 16.6597 30.6458 17.3125C29.9931 17.9653 29.6667 18.75 29.6667 19.6667V36.3333C29.6667 38.1667 29.0139 39.7361 27.7083 41.0417C26.4028 42.3472 24.8333 43 23 43ZM18 19.6667C18.4722 19.6667 18.8681 19.5069 19.1875 19.1875C19.5069 18.8681 19.6667 18.4722 19.6667 18C19.6667 17.5278 19.5069 17.1319 19.1875 16.8125C18.8681 16.4931 18.4722 16.3333 18 16.3333C17.5278 16.3333 17.1319 16.4931 16.8125 16.8125C16.4931 17.1319 16.3333 17.5278 16.3333 18C16.3333 18.4722 16.4931 18.8681 16.8125 19.1875C17.1319 19.5069 17.5278 19.6667 18 19.6667ZM38 39.6667C38.4722 39.6667 38.8681 39.5069 39.1875 39.1875C39.5069 38.8681 39.6667 38.4722 39.6667 38C39.6667 37.5278 39.5069 37.1319 39.1875 36.8125C38.8681 36.4931 38.4722 36.3333 38 36.3333C37.5278 36.3333 37.1319 36.4931 36.8125 36.8125C36.4931 37.1319 36.3333 37.5278 36.3333 38C36.3333 38.4722 36.4931 38.8681 36.8125 39.1875C37.1319 39.5069 37.5278 39.6667 38 39.6667Z" fill="#278F2E"/>
</g>
</svg>
