<svg width="33" height="32" viewBox="0 0 33 32" fill="none" xmlns="http://www.w3.org/2000/svg">
<mask id="mask0_41921_1983" style="mask-type:alpha" maskUnits="userSpaceOnUse" x="0" y="0" width="33" height="32">
<rect x="0.5" width="32" height="32" fill="#D9D9D9"/>
</mask>
<g mask="url(#mask0_41921_1983)">
<path d="M8.03242 13.3668L10.6324 14.4668C10.9435 13.8446 11.2658 13.2446 11.5991 12.6668C11.9324 12.089 12.2991 11.5113 12.6991 10.9335L10.8324 10.5668L8.03242 13.3668ZM12.7658 16.1335L16.5658 19.9001C17.4991 19.5446 18.4991 19.0001 19.5658 18.2668C20.6324 17.5335 21.6324 16.7001 22.5658 15.7668C24.1213 14.2113 25.338 12.4835 26.2158 10.5835C27.0935 8.68347 27.4769 6.93347 27.3658 5.33347C25.7658 5.22236 24.0102 5.6057 22.0991 6.48347C20.188 7.36125 18.4546 8.57792 16.8991 10.1335C15.9658 11.0668 15.1324 12.0668 14.3991 13.1335C13.6658 14.2001 13.1213 15.2001 12.7658 16.1335ZM18.6991 13.9668C18.188 13.4557 17.9324 12.8279 17.9324 12.0835C17.9324 11.339 18.188 10.7113 18.6991 10.2001C19.2102 9.68903 19.8435 9.43347 20.5991 9.43347C21.3546 9.43347 21.988 9.68903 22.4991 10.2001C23.0102 10.7113 23.2658 11.339 23.2658 12.0835C23.2658 12.8279 23.0102 13.4557 22.4991 13.9668C21.988 14.4779 21.3546 14.7335 20.5991 14.7335C19.8435 14.7335 19.2102 14.4779 18.6991 13.9668ZM19.3324 24.6668L22.1324 21.8668L21.7658 20.0001C21.188 20.4001 20.6102 20.7613 20.0324 21.0835C19.4546 21.4057 18.8546 21.7224 18.2324 22.0335L19.3324 24.6668ZM29.7658 2.90014C30.188 5.58903 29.9269 8.2057 28.9824 10.7501C28.038 13.2946 26.4102 15.7224 24.0991 18.0335L24.7658 21.3335C24.8546 21.7779 24.8324 22.2113 24.6991 22.6335C24.5658 23.0557 24.3435 23.4224 24.0324 23.7335L18.4324 29.3335L15.6324 22.7668L9.93242 17.0668L3.36576 14.2668L8.93242 8.66681C9.24353 8.3557 9.61576 8.13347 10.0491 8.00014C10.4824 7.86681 10.9213 7.84459 11.3658 7.93347L14.6658 8.60014C16.9769 6.28903 19.3991 4.6557 21.9324 3.70014C24.4658 2.74459 27.0769 2.47792 29.7658 2.90014ZM5.73242 21.3001C6.5102 20.5224 7.4602 20.1279 8.58242 20.1168C9.70464 20.1057 10.6546 20.489 11.4324 21.2668C12.2102 22.0446 12.5935 22.9946 12.5824 24.1168C12.5713 25.239 12.1769 26.189 11.3991 26.9668C10.8435 27.5224 9.91575 28.0001 8.61575 28.4001C7.31575 28.8001 5.52131 29.1557 3.23242 29.4668C3.54353 27.1779 3.89909 25.3835 4.29909 24.0835C4.69909 22.7835 5.17687 21.8557 5.73242 21.3001ZM7.63242 23.1668C7.4102 23.389 7.18798 23.7946 6.96575 24.3835C6.74353 24.9724 6.58798 25.5668 6.49909 26.1668C7.09909 26.0779 7.69353 25.9279 8.28242 25.7168C8.87131 25.5057 9.27687 25.289 9.49909 25.0668C9.76576 24.8001 9.9102 24.4779 9.93242 24.1001C9.95464 23.7224 9.83242 23.4001 9.56575 23.1335C9.29909 22.8668 8.97687 22.739 8.59909 22.7501C8.22131 22.7613 7.89909 22.9001 7.63242 23.1668Z" fill="#64C66B"/>
</g>
</svg>
