<svg width="33" height="32" viewBox="0 0 33 32" fill="none" xmlns="http://www.w3.org/2000/svg">
<mask id="mask0_41921_2342" style="mask-type:alpha" maskUnits="userSpaceOnUse" x="0" y="0" width="33" height="32">
<rect x="0.5" width="32" height="32" fill="#D9D9D9"/>
</mask>
<g mask="url(#mask0_41921_2342)">
<path d="M7.16667 29.3337C6.43333 29.3337 5.80556 29.0725 5.28333 28.5503C4.76111 28.0281 4.5 27.4003 4.5 26.667V8.00033C4.5 7.26699 4.76111 6.63921 5.28333 6.11699C5.80556 5.59477 6.43333 5.33366 7.16667 5.33366H8.5V2.66699H11.1667V5.33366H21.8333V2.66699H24.5V5.33366H25.8333C26.5667 5.33366 27.1944 5.59477 27.7167 6.11699C28.2389 6.63921 28.5 7.26699 28.5 8.00033V26.667C28.5 27.4003 28.2389 28.0281 27.7167 28.5503C27.1944 29.0725 26.5667 29.3337 25.8333 29.3337H7.16667ZM7.16667 26.667H25.8333V13.3337H7.16667V26.667ZM7.16667 10.667H25.8333V8.00033H7.16667V10.667ZM16.5 18.667C16.1222 18.667 15.8056 18.5392 15.55 18.2837C15.2944 18.0281 15.1667 17.7114 15.1667 17.3337C15.1667 16.9559 15.2944 16.6392 15.55 16.3837C15.8056 16.1281 16.1222 16.0003 16.5 16.0003C16.8778 16.0003 17.1944 16.1281 17.45 16.3837C17.7056 16.6392 17.8333 16.9559 17.8333 17.3337C17.8333 17.7114 17.7056 18.0281 17.45 18.2837C17.1944 18.5392 16.8778 18.667 16.5 18.667ZM11.1667 18.667C10.7889 18.667 10.4722 18.5392 10.2167 18.2837C9.96111 18.0281 9.83333 17.7114 9.83333 17.3337C9.83333 16.9559 9.96111 16.6392 10.2167 16.3837C10.4722 16.1281 10.7889 16.0003 11.1667 16.0003C11.5444 16.0003 11.8611 16.1281 12.1167 16.3837C12.3722 16.6392 12.5 16.9559 12.5 17.3337C12.5 17.7114 12.3722 18.0281 12.1167 18.2837C11.8611 18.5392 11.5444 18.667 11.1667 18.667ZM21.8333 18.667C21.4556 18.667 21.1389 18.5392 20.8833 18.2837C20.6278 18.0281 20.5 17.7114 20.5 17.3337C20.5 16.9559 20.6278 16.6392 20.8833 16.3837C21.1389 16.1281 21.4556 16.0003 21.8333 16.0003C22.2111 16.0003 22.5278 16.1281 22.7833 16.3837C23.0389 16.6392 23.1667 16.9559 23.1667 17.3337C23.1667 17.7114 23.0389 18.0281 22.7833 18.2837C22.5278 18.5392 22.2111 18.667 21.8333 18.667ZM16.5 24.0003C16.1222 24.0003 15.8056 23.8725 15.55 23.617C15.2944 23.3614 15.1667 23.0448 15.1667 22.667C15.1667 22.2892 15.2944 21.9725 15.55 21.717C15.8056 21.4614 16.1222 21.3337 16.5 21.3337C16.8778 21.3337 17.1944 21.4614 17.45 21.717C17.7056 21.9725 17.8333 22.2892 17.8333 22.667C17.8333 23.0448 17.7056 23.3614 17.45 23.617C17.1944 23.8725 16.8778 24.0003 16.5 24.0003ZM11.1667 24.0003C10.7889 24.0003 10.4722 23.8725 10.2167 23.617C9.96111 23.3614 9.83333 23.0448 9.83333 22.667C9.83333 22.2892 9.96111 21.9725 10.2167 21.717C10.4722 21.4614 10.7889 21.3337 11.1667 21.3337C11.5444 21.3337 11.8611 21.4614 12.1167 21.717C12.3722 21.9725 12.5 22.2892 12.5 22.667C12.5 23.0448 12.3722 23.3614 12.1167 23.617C11.8611 23.8725 11.5444 24.0003 11.1667 24.0003ZM21.8333 24.0003C21.4556 24.0003 21.1389 23.8725 20.8833 23.617C20.6278 23.3614 20.5 23.0448 20.5 22.667C20.5 22.2892 20.6278 21.9725 20.8833 21.717C21.1389 21.4614 21.4556 21.3337 21.8333 21.3337C22.2111 21.3337 22.5278 21.4614 22.7833 21.717C23.0389 21.9725 23.1667 22.2892 23.1667 22.667C23.1667 23.0448 23.0389 23.3614 22.7833 23.617C22.5278 23.8725 22.2111 24.0003 21.8333 24.0003Z" fill="#64C66B"/>
</g>
</svg>
