<svg width="32" height="32" viewBox="0 0 32 32" fill="none" xmlns="http://www.w3.org/2000/svg">
<mask id="mask0_41977_22213" style="mask-type:alpha" maskUnits="userSpaceOnUse" x="0" y="0" width="32" height="32">
<rect width="32" height="32" fill="#D9D9D9"/>
</mask>
<g mask="url(#mask0_41977_22213)">
<path d="M6.66699 28.0013V25.3346H13.3337V22.668C11.4892 22.668 9.91699 22.018 8.61699 20.718C7.31699 19.418 6.66699 17.8457 6.66699 16.0013C6.66699 14.6457 7.03921 13.4124 7.78366 12.3013C8.5281 11.1902 9.53366 10.3791 10.8003 9.86797C10.9781 9.11241 11.3725 8.5013 11.9837 8.03464C12.5948 7.56797 13.2892 7.33464 14.067 7.33464L13.3337 5.26797L14.6003 4.8013L14.1337 3.6013L16.667 2.66797L17.067 3.93464L18.3337 3.46797L22.0003 13.468L20.7337 13.9346L21.2003 15.2013L18.667 16.1346L18.267 14.868L17.0003 15.3346L16.2003 13.1346C15.867 13.4457 15.4837 13.6791 15.0503 13.8346C14.617 13.9902 14.1781 14.0457 13.7337 14.0013C13.2448 13.9569 12.7892 13.8069 12.367 13.5513C11.9448 13.2957 11.5781 12.9791 11.267 12.6013C10.667 12.9569 10.1948 13.4346 9.85033 14.0346C9.50588 14.6346 9.33366 15.2902 9.33366 16.0013C9.33366 17.1124 9.72255 18.0569 10.5003 18.8346C11.2781 19.6124 12.2225 20.0013 13.3337 20.0013H24.0003V22.668H17.3337V25.3346H25.3337V28.0013H6.66699ZM18.2003 12.7346L19.4003 12.268L17.1337 6.0013L15.867 6.46797L18.2003 12.7346ZM14.0003 12.0013C14.3781 12.0013 14.6948 11.8735 14.9503 11.618C15.2059 11.3624 15.3337 11.0457 15.3337 10.668C15.3337 10.2902 15.2059 9.97352 14.9503 9.71797C14.6948 9.46241 14.3781 9.33464 14.0003 9.33464C13.6225 9.33464 13.3059 9.46241 13.0503 9.71797C12.7948 9.97352 12.667 10.2902 12.667 10.668C12.667 11.0457 12.7948 11.3624 13.0503 11.618C13.3059 11.8735 13.6225 12.0013 14.0003 12.0013Z" fill="#278F2E"/>
</g>
</svg>
