<svg width="32" height="32" viewBox="0 0 32 32" fill="none" xmlns="http://www.w3.org/2000/svg">
<mask id="mask0_41977_21470" style="mask-type:alpha" maskUnits="userSpaceOnUse" x="0" y="0" width="32" height="32">
<rect width="32" height="32" fill="#D9D9D9"/>
</mask>
<g mask="url(#mask0_41977_21470)">
<path d="M25.1997 27.9982L17.8997 20.6982L20.6997 17.8982L27.9997 25.1982L25.1997 27.9982ZM6.79967 27.9982L3.99967 25.1982L13.1997 15.9982L10.933 13.7315L9.99967 14.6648L8.29967 12.9648V15.6982L7.36634 16.6315L3.33301 12.5982L4.26634 11.6648H6.99967L5.33301 9.99818L10.0663 5.26484C10.5108 4.8204 10.9886 4.49818 11.4997 4.29818C12.0108 4.09818 12.533 3.99818 13.0663 3.99818C13.5997 3.99818 14.1219 4.09818 14.633 4.29818C15.1441 4.49818 15.6219 4.8204 16.0663 5.26484L12.9997 8.33151L14.6663 9.99818L13.733 10.9315L15.9997 13.1982L18.9997 10.1982C18.9108 9.95373 18.8386 9.69818 18.783 9.43151C18.7275 9.16484 18.6997 8.89818 18.6997 8.63151C18.6997 7.3204 19.1497 6.21484 20.0497 5.31484C20.9497 4.41484 22.0552 3.96484 23.3663 3.96484C23.6997 3.96484 24.0163 3.99818 24.3163 4.06484C24.6163 4.13151 24.9219 4.23151 25.233 4.36484L21.933 7.66484L24.333 10.0648L27.633 6.76484C27.7886 7.07596 27.8941 7.38151 27.9497 7.68151C28.0052 7.98151 28.033 8.29818 28.033 8.63151C28.033 9.94262 27.583 11.0482 26.683 11.9482C25.783 12.8482 24.6775 13.2982 23.3663 13.2982C23.0997 13.2982 22.833 13.276 22.5663 13.2315C22.2997 13.1871 22.0441 13.1093 21.7997 12.9982L6.79967 27.9982Z" fill="#278F2E"/>
</g>
</svg>
