<svg width="32" height="32" viewBox="0 0 32 32" fill="none" xmlns="http://www.w3.org/2000/svg">
<mask id="mask0_41977_1603" style="mask-type:alpha" maskUnits="userSpaceOnUse" x="0" y="0" width="32" height="32">
<rect width="32" height="32" fill="#D9D9D9"/>
</mask>
<g mask="url(#mask0_41977_1603)">
<path d="M13.9997 20.0013H17.9997L17.233 15.7013C17.6775 15.4791 18.0275 15.1569 18.283 14.7346C18.5386 14.3124 18.6663 13.8457 18.6663 13.3346C18.6663 12.6013 18.4052 11.9735 17.883 11.4513C17.3608 10.9291 16.733 10.668 15.9997 10.668C15.2663 10.668 14.6386 10.9291 14.1163 11.4513C13.5941 11.9735 13.333 12.6013 13.333 13.3346C13.333 13.8457 13.4608 14.3124 13.7163 14.7346C13.9719 15.1569 14.3219 15.4791 14.7663 15.7013L13.9997 20.0013ZM15.9997 29.3346C12.9108 28.5569 10.3608 26.7846 8.34967 24.018C6.33856 21.2513 5.33301 18.1791 5.33301 14.8013V6.66797L15.9997 2.66797L26.6663 6.66797V14.8013C26.6663 18.1791 25.6608 21.2513 23.6497 24.018C21.6386 26.7846 19.0886 28.5569 15.9997 29.3346ZM15.9997 26.5346C18.3108 25.8013 20.2219 24.3346 21.733 22.1346C23.2441 19.9346 23.9997 17.4902 23.9997 14.8013V8.5013L15.9997 5.5013L7.99967 8.5013V14.8013C7.99967 17.4902 8.75523 19.9346 10.2663 22.1346C11.7775 24.3346 13.6886 25.8013 15.9997 26.5346Z" fill="#278F2E"/>
</g>
</svg>
