<svg width="56" height="56" viewBox="0 0 56 56" fill="none" xmlns="http://www.w3.org/2000/svg">
<rect width="56" height="56" rx="28" fill="#64C66B"/>
<mask id="mask0_44034_9523" style="mask-type:alpha" maskUnits="userSpaceOnUse" x="8" y="8" width="40" height="40">
<rect x="8" y="8" width="40" height="40" fill="#D9D9D9"/>
</mask>
<g mask="url(#mask0_44034_9523)">
<path d="M16.3333 37.75C17.8333 36.2778 19.5764 35.1181 21.5625 34.2708C23.5486 33.4236 25.6944 33 28 33C30.3056 33 32.4514 33.4236 34.4375 34.2708C36.4236 35.1181 38.1667 36.2778 39.6667 37.75V16.3333H16.3333V37.75ZM28 29.6667C29.6111 29.6667 30.9861 29.0972 32.125 27.9583C33.2639 26.8194 33.8333 25.4444 33.8333 23.8333C33.8333 22.2222 33.2639 20.8472 32.125 19.7083C30.9861 18.5694 29.6111 18 28 18C26.3889 18 25.0139 18.5694 23.875 19.7083C22.7361 20.8472 22.1667 22.2222 22.1667 23.8333C22.1667 25.4444 22.7361 26.8194 23.875 27.9583C25.0139 29.0972 26.3889 29.6667 28 29.6667ZM16.3333 43C15.4167 43 14.6319 42.6736 13.9792 42.0208C13.3264 41.3681 13 40.5833 13 39.6667V16.3333C13 15.4167 13.3264 14.6319 13.9792 13.9792C14.6319 13.3264 15.4167 13 16.3333 13H39.6667C40.5833 13 41.3681 13.3264 42.0208 13.9792C42.6736 14.6319 43 15.4167 43 16.3333V39.6667C43 40.5833 42.6736 41.3681 42.0208 42.0208C41.3681 42.6736 40.5833 43 39.6667 43H16.3333ZM19.2083 39.6667H36.7917C35.5694 38.5833 34.1875 37.7569 32.6458 37.1875C31.1042 36.6181 29.5556 36.3333 28 36.3333C26.4444 36.3333 24.8819 36.6181 23.3125 37.1875C21.7431 37.7569 20.375 38.5833 19.2083 39.6667ZM28 26.3333C27.3056 26.3333 26.7153 26.0903 26.2292 25.6042C25.7431 25.1181 25.5 24.5278 25.5 23.8333C25.5 23.1389 25.7431 22.5486 26.2292 22.0625C26.7153 21.5764 27.3056 21.3333 28 21.3333C28.6944 21.3333 29.2847 21.5764 29.7708 22.0625C30.2569 22.5486 30.5 23.1389 30.5 23.8333C30.5 24.5278 30.2569 25.1181 29.7708 25.6042C29.2847 26.0903 28.6944 26.3333 28 26.3333Z" fill="#278F2E"/>
</g>
</svg>
