<svg width="56" height="56" viewBox="0 0 56 56" fill="none" xmlns="http://www.w3.org/2000/svg">
<rect width="56" height="56" rx="28" fill="#64C66B"/>
<mask id="mask0_44034_9506" style="mask-type:alpha" maskUnits="userSpaceOnUse" x="8" y="8" width="40" height="40">
<rect x="8" y="8" width="40" height="40" fill="#D9D9D9"/>
</mask>
<g mask="url(#mask0_44034_9506)">
<path d="M23 43V19.375L20.3333 22L18 19.6667L24.6667 13L31.3333 19.6667L29 22.0417L26.3333 19.375V30.25C27.3056 29.3889 28.4028 28.7708 29.625 28.3958C30.8472 28.0208 32.0694 27.8333 33.2917 27.8333C33.5972 27.8333 33.8889 27.8472 34.1667 27.875C34.4444 27.9028 34.7083 27.9444 34.9583 28L32.3333 25.3333L34.6667 23L41.3333 29.6667L34.6667 36.3333L32.3333 34L34.9583 31.3333C34.6528 31.2778 34.3472 31.2292 34.0417 31.1875C33.7361 31.1458 33.4306 31.125 33.125 31.125C31.625 31.125 30.2431 31.5486 28.9792 32.3958C27.7153 33.2431 26.8333 34.5556 26.3333 36.3333V43H23Z" fill="#278F2E"/>
</g>
</svg>
