<svg width="32" height="32" viewBox="0 0 32 32" fill="none" xmlns="http://www.w3.org/2000/svg">
<path fill-rule="evenodd" clip-rule="evenodd" d="M24.8486 8.8483C25.3173 8.37968 25.3173 7.61989 24.8486 7.15127C24.38 6.68265 23.6202 6.68265 23.1516 7.15127L15.9999 14.3027L8.84863 7.1517C8.38 6.68308 7.62019 6.68308 7.15155 7.1517C6.68291 7.62032 6.68291 8.3801 7.15155 8.84872L14.3028 15.9997L7.15153 23.1508C6.68289 23.6194 6.68289 24.3792 7.15153 24.8478C7.62016 25.3164 8.37997 25.3164 8.84861 24.8478L15.9999 17.6968L23.1516 24.8482C23.6202 25.3168 24.38 25.3168 24.8487 24.8482C25.3173 24.3796 25.3173 23.6198 24.8487 23.1512L17.697 15.9997L24.8486 8.8483Z" fill="#3F65FF"/>
</svg>
