<svg width="36" height="34" viewBox="0 0 36 34" fill="none" xmlns="http://www.w3.org/2000/svg">
<path d="M26.4217 0.712158H9.09375C4.30658 0.712158 0.412109 4.60663 0.412109 9.3938V25.2464C0.412109 30.0335 4.30658 33.928 9.09375 33.928H26.4217C31.2089 33.928 35.1034 30.0335 35.1034 25.2464V9.3938C35.1034 4.60663 31.2089 0.712158 26.4217 0.712158ZM3.47472 9.3938C3.47472 6.29587 5.99583 3.77476 9.09375 3.77476H26.4217C29.5196 3.77476 32.0407 6.29587 32.0407 9.3938V25.2464C32.0407 28.3443 29.5196 30.8654 26.4217 30.8654H9.09375C5.99583 30.8654 3.47472 28.3443 3.47472 25.2464V9.3938Z" fill="white"/>
<path d="M17.757 25.3933C22.2087 25.3933 25.8324 21.7716 25.8324 17.3179C25.8324 12.8643 22.2107 9.24255 17.757 9.24255C13.3034 9.24255 9.68164 12.8643 9.68164 17.3179C9.68164 21.7716 13.3034 25.3933 17.757 25.3933ZM17.757 12.3071C20.5214 12.3071 22.7698 14.5555 22.7698 17.3199C22.7698 20.0843 20.5214 22.3327 17.757 22.3327C14.9927 22.3327 12.7443 20.0843 12.7443 17.3199C12.7443 14.5555 14.9927 12.3071 17.757 12.3071Z" fill="white"/>
<path d="M26.582 10.5477C27.7808 10.5477 28.7579 9.57257 28.7579 8.37186C28.7579 7.17114 27.7828 6.19604 26.582 6.19604C25.3813 6.19604 24.4062 7.17114 24.4062 8.37186C24.4062 9.57257 25.3813 10.5477 26.582 10.5477Z" fill="white"/>
</svg>
