<svg width="25" height="24" viewBox="0 0 25 24" fill="none" xmlns="http://www.w3.org/2000/svg">
<path d="M18.6894 0.138672H6.31225C2.89285 0.138672 0.111084 2.92044 0.111084 6.33984V17.6631C0.111084 21.0825 2.89285 23.8643 6.31225 23.8643H18.6894C22.1088 23.8643 24.8905 21.0825 24.8905 17.6631V6.33984C24.8905 2.92044 22.1088 0.138672 18.6894 0.138672ZM2.29866 6.33984C2.29866 4.12704 4.09945 2.32625 6.31225 2.32625H18.6894C20.9022 2.32625 22.703 4.12704 22.703 6.33984V17.6631C22.703 19.8759 20.9022 21.6767 18.6894 21.6767H6.31225C4.09945 21.6767 2.29866 19.8759 2.29866 17.6631V6.33984Z" fill="#5B5B5B"/>
<path d="M12.5003 17.7677C15.6801 17.7677 18.2685 15.1807 18.2685 11.9996C18.2685 8.81842 15.6815 6.23145 12.5003 6.23145C9.31916 6.23145 6.73218 8.81842 6.73218 11.9996C6.73218 15.1807 9.31916 17.7677 12.5003 17.7677ZM12.5003 8.42042C14.4749 8.42042 16.0809 10.0264 16.0809 12.001C16.0809 13.9755 14.4749 15.5815 12.5003 15.5815C10.5258 15.5815 8.91976 13.9755 8.91976 12.001C8.91976 10.0264 10.5258 8.42042 12.5003 8.42042Z" fill="#5B5B5B"/>
<path d="M18.8034 7.16396C19.6597 7.16396 20.3576 6.46747 20.3576 5.60981C20.3576 4.75216 19.6611 4.05566 18.8034 4.05566C17.9458 4.05566 17.2493 4.75216 17.2493 5.60981C17.2493 6.46747 17.9458 7.16396 18.8034 7.16396Z" fill="#5B5B5B"/>
</svg>
