<svg width="23" height="24" viewBox="0 0 23 24" fill="none" xmlns="http://www.w3.org/2000/svg">
<path d="M1.0397 5.29528C0.512777 4.8062 0.250732 4.2008 0.250732 3.48049C0.250732 2.76017 0.514178 2.12814 1.0397 1.63765C1.56662 1.14856 2.2449 0.90332 3.07593 0.90332C3.90696 0.90332 4.55862 1.14856 5.08414 1.63765C5.61106 2.12674 5.87311 2.74195 5.87311 3.48049C5.87311 4.21902 5.60966 4.8062 5.08414 5.29528C4.55721 5.78437 3.88874 6.02961 3.07593 6.02961C2.26312 6.02961 1.56662 5.78437 1.0397 5.29528ZM5.43028 8.10088V23.0958H0.692158V8.10088H5.43028Z" fill="#5B5B5B"/>
<path d="M21.2035 9.58206C22.2363 10.7032 22.7521 12.2419 22.7521 14.2011V22.8309H18.2522V14.8093C18.2522 13.8213 17.9958 13.0533 17.4843 12.5068C16.9727 11.9602 16.2833 11.6856 15.42 11.6856C14.5567 11.6856 13.8672 11.9588 13.3557 12.5068C12.8442 13.0533 12.5878 13.8213 12.5878 14.8093V22.8309H8.06128V8.05875H12.5878V10.0179C13.046 9.36485 13.6641 8.84914 14.4404 8.46936C15.2168 8.08959 16.0899 7.90039 17.061 7.90039C18.7903 7.90039 20.1721 8.46095 21.2035 9.58066V9.58206Z" fill="#5B5B5B"/>
</svg>
