<svg width="32" height="32" viewBox="0 0 32 32" fill="none" xmlns="http://www.w3.org/2000/svg">
<path d="M1.11041 6.9322C0.372721 6.24748 0.00585938 5.39992 0.00585938 4.39148C0.00585938 3.38304 0.374683 2.49819 1.11041 1.81151C1.84811 1.12679 2.7977 0.783447 3.96114 0.783447C5.12457 0.783447 6.0369 1.12679 6.77263 1.81151C7.51032 2.49623 7.87718 3.35753 7.87718 4.39148C7.87718 5.42543 7.50836 6.24748 6.77263 6.9322C6.03493 7.61692 5.09907 7.96026 3.96114 7.96026C2.8232 7.96026 1.84811 7.61692 1.11041 6.9322ZM7.25722 10.86V31.8529H0.623855V10.86H7.25722Z" fill="white"/>
<path d="M29.3405 12.9336C30.7865 14.5031 31.5085 16.6574 31.5085 19.4002V31.4819H25.2087V20.2517C25.2087 18.8685 24.8497 17.7933 24.1336 17.0282C23.4175 16.263 22.4522 15.8785 21.2436 15.8785C20.0351 15.8785 19.0697 16.261 18.3536 17.0282C17.6375 17.7933 17.2785 18.8685 17.2785 20.2517V31.4819H10.9414V10.8009H17.2785V13.5437C17.92 12.6295 18.7853 11.9075 19.8722 11.3758C20.9591 10.8441 22.1814 10.5792 23.5411 10.5792C25.9621 10.5792 27.8965 11.364 29.3405 12.9316V12.9336Z" fill="white"/>
</svg>
