<svg width="61" height="58" viewBox="0 0 61 58" fill="none" xmlns="http://www.w3.org/2000/svg">
<ellipse cx="31.2644" cy="29.2596" rx="29.1951" ry="28.7323" fill="#33BC3C"/>
<path d="M37.3372 57.3692C35.3782 57.7771 33.3467 57.9916 31.2643 57.9916C20.3964 57.9916 10.9154 52.1475 5.88903 43.4782L5.81207 43.1228C5.51012 42.5914 5.31437 42.1649 5.08173 41.6581C5.02506 41.5347 4.96621 41.4065 4.9031 41.2708L8.4032 35.5879C7.72414 35.1159 6.57669 34.2936 5.39288 33.338C4.11282 32.3051 3.24662 31.4923 2.55045 30.6881C2.38576 30.4973 2.22865 30.2997 2.08136 30.0959C1.64147 29.4181 1.10678 28.6773 0.839435 27.5661C0.679025 25.82 -0.123014 23.5976 3.27447 21.0626L3.8412 20.6334L19.2264 8.8198L19.266 8.79652C19.358 8.74149 21.5716 7.44192 24.9498 6.3011C28.0788 5.24494 32.8344 4.13798 37.714 4.86819C42.0717 5.52009 46.0819 7.74353 48.8741 11.093C49.0043 11.2492 49.1312 11.4079 49.2545 11.569C50.681 11.17 52.2922 11.0791 55.7203 11.0824C56.8346 11.0835 58.1382 11.112 58.6836 11.4115C60.0299 12.1502 58.2045 19.4153 57.5671 20.4408C57.0568 21.2622 56.229 21.7776 55.3175 22.0912C57.6036 22.9248 58.9142 24.4518 59.1188 26.5311C59.3551 28.9313 59.1658 31.9019 58.6108 34.4767C58.1595 36.5731 57.2709 39.3744 55.5962 40.8221C53.0896 42.9874 44.5067 43.6837 42.4428 43.8213C41.385 45.1061 36.681 51.216 37.3372 57.3692Z" fill="white"/>
<path fill-rule="evenodd" clip-rule="evenodd" d="M4.79513 41.3982L8.40331 35.5879C7.72425 35.1159 6.5768 34.2936 5.39299 33.338C4.11293 32.3051 3.24673 31.4923 2.55056 30.6881C1.68883 29.6897 0.89301 28.7302 0.732602 27.2487C0.641996 26.2988 0.572196 25.5025 0.732608 24.55C0.99397 22.9982 1.90893 22.1689 3.09381 21.1995L3.84131 20.6334L19.2266 8.8198L19.2661 8.79652C19.3581 8.74149 21.5717 7.44192 24.9499 6.3011C28.0789 5.24494 32.8345 4.13798 37.7141 4.86819C42.0718 5.52009 46.082 7.74353 48.8742 11.093C50.2783 12.7767 51.2878 14.7536 51.7605 16.886C51.8674 17.3728 51.9797 20.8683 51.9797 20.8683C51.9797 21.1847 52.2203 21.4504 52.5379 21.4821C53.1838 21.5467 53.9912 21.6747 54.8136 21.9234C57.4111 22.7097 58.8997 24.3035 59.1189 26.5311C59.3552 28.9313 59.1659 31.9019 58.6109 34.4767C58.1596 36.5731 57.271 39.3744 55.5963 40.8221C53.0897 42.9874 44.5068 43.6837 42.4429 43.8213C41.3884 45.1021 36.7218 51.2333 37.3431 57.368C36.8122 57.4786 36.2759 57.5751 35.7347 57.6569C35.0652 51.4541 39.1253 45.4512 40.7779 43.3387C38.7674 43.0826 36.6543 42.435 34.5273 41.2052C34.5273 41.2052 29.5622 38.4548 26.3775 34.155C26.3775 34.155 27.3218 32.7655 28.8596 34.3688C29.1076 34.6269 29.392 34.9684 29.7172 35.3588C31.4103 37.3912 34.2101 40.7519 38.7375 40.6179C44.1347 40.457 49.025 38.1595 53.0737 31.7093C53.0737 31.7093 49.1587 31.6056 48.3438 26.4973C48.039 24.5871 48.9811 23.0981 50.3767 22.5245L50.3767 22.5242C50.3094 22.4831 50.2376 22.4381 50.1616 22.389C49.683 22.0796 49.0397 21.6077 48.3733 20.9531C47.0392 19.6426 45.6057 17.5924 45.2303 14.6546L46.1852 14.5351C46.2594 15.1162 46.3789 15.6591 46.533 16.1652C47.1358 14.7638 48.769 14.6903 49.225 14.6985C46.8082 10.2601 42.4354 7.17947 37.4746 6.43762C29.0307 5.17509 20.7462 9.78283 20.1248 10.1384C20.1248 10.1384 4.31505 21.9573 3.8873 22.2747C3.77632 22.3571 3.66175 22.4644 3.55291 22.5782C3.13555 23.0144 2.65208 23.6031 2.44362 24.1267C2.20537 24.7252 2.16058 25.2298 2.17627 25.8729C2.19719 26.7303 2.39171 27.7753 2.6575 28.3598C3.1289 29.3965 4.31962 30.3824 5.99447 31.7691L6.09985 31.8564C6.09907 31.8556 6.09843 31.8548 6.09788 31.8541C6.09755 31.8537 6.09725 31.8533 6.09698 31.8529C6.09647 31.8522 6.09601 31.8515 6.09557 31.8511C6.09829 31.8532 6.10374 31.8574 6.11186 31.8637C6.5768 32.2231 15.7767 39.3342 18.8394 36.244C21.666 33.3917 18.584 25.2704 17.8185 23.2533C17.7325 23.0268 17.6758 22.8772 17.6599 22.8208C17.6567 22.8097 17.6513 22.7915 17.6439 22.7666C17.3875 21.9082 14.7581 13.103 21.5001 11.5047C21.5001 11.5047 17.3166 17.6067 19.5602 23.8399C21.8048 30.0753 21.9246 34.7455 20.513 37.1764C19.1014 39.6062 15.657 39.8411 13.0605 38.5998C13.0605 38.5998 7.30671 42.7467 6.06793 43.7823C5.6073 43.0099 5.1823 42.2145 4.79513 41.3982ZM48.6026 16.6246C47.9866 16.7188 47.5118 16.577 47.4605 16.0224C47.4091 15.4668 47.8527 15.1772 48.474 15.1333C48.9584 15.099 49.3531 15.1297 49.4634 15.7484C49.5618 16.2976 49.1993 16.5336 48.6026 16.6246ZM54.1495 39.8506C52.4178 39.0323 52.7641 37.8042 53.2236 36.1744C53.3506 35.7238 53.4863 35.2425 53.5891 34.7307C53.9057 33.1581 54.0404 31.7612 54.0404 31.7612C55.776 31.7686 57.0646 30.6182 57.5843 29.8944C57.3918 33.8407 56.1995 38.1849 54.1495 39.8506ZM49.0513 20.2771C48.4628 19.699 47.8558 18.967 47.3463 18.0642C48.0159 18.5527 49.0003 18.8881 50.2505 18.2586C50.2976 19.5856 50.3288 20.6356 50.3484 21.3618C49.9674 21.0922 49.5156 20.7332 49.0513 20.2771Z" fill="#323232"/>
<path d="M36.3406 15.3098C34.6135 14.3668 31.7529 17.4179 31.7529 17.4179C31.9272 18.9069 34.9076 19.4804 36.1738 19.1545C37.4271 18.8328 38.5296 18.0327 38.5296 18.0327C38.5296 18.0327 38.0238 16.2294 36.3406 15.3098ZM35.422 17.2559C34.8018 17.312 34.2799 17.1713 34.2286 16.6167C34.1772 16.0611 34.6435 15.6146 35.2648 15.5585C35.885 15.5024 36.4261 15.8569 36.4775 16.4125C36.5288 16.9681 36.0433 17.2009 35.422 17.257V17.2559Z" fill="#323232"/>
<path d="M58.6839 11.4112C58.1386 11.1117 56.835 11.0832 55.7207 11.0821C51.2988 11.0779 49.9 11.2303 48.0211 11.9986C45.7882 12.914 43.9991 12.4738 37.4844 11.5806C37.4844 11.5806 32.0776 10.7953 26.4227 12.6611L19.2536 15.7534L18.6162 18.7589C18.6162 18.7589 26.5596 14.8379 26.9638 15.1565C27.2686 15.3978 28.5294 19.0446 29.1261 20.8088C29.5892 22.1782 30.5709 23.5243 32.0038 23.7984C39.4532 25.2239 41.9502 22.3803 43.5072 15.6475H44.8333C44.8333 15.6475 46.2395 18.2594 46.7304 18.9843C47.1656 19.6277 48.6478 21.83 50.5566 22.3263C50.8432 22.5412 55.9003 23.1243 57.5675 20.4405C58.2049 19.415 60.0303 12.1499 58.6839 11.4112ZM41.7748 16.165C41.7748 16.165 41.6294 17.363 40.1996 20.3114C38.7634 23.2714 32.6701 23.9169 30.8906 20.8521C29.5432 18.5313 29.618 15.9798 29.7346 14.876C29.7785 14.457 30.002 14.077 30.3474 13.8294C32.5278 12.2621 37.3968 12.6156 39.7719 13.2357C42.3683 13.9109 41.7748 16.165 41.7748 16.165ZM57.6605 15.0284C57.5696 16.637 56.9836 18.3842 56.7259 19.0869C56.6136 19.3917 56.4682 19.6859 56.2757 19.9494C55.5047 21.0077 54.3198 21.4236 53.3146 21.5739C53.3103 21.5739 53.306 21.576 53.3017 21.576C53.1082 21.612 52.9146 21.631 52.7243 21.6353C52.7189 21.6363 52.7136 21.6363 52.7093 21.6363C51.2121 21.6681 49.8776 20.8469 49.7193 20.7463C49.7086 20.7389 49.7032 20.7357 49.7032 20.7357C47.5249 19.2097 46.864 16.7619 46.6854 15.5121C46.5614 14.6538 47.0212 13.8167 47.8179 13.4558C50.0337 12.4505 53.9455 12.6039 53.9455 12.6039C54.878 12.6336 55.5763 12.7426 56.0982 12.8833C57.0638 13.1447 57.7162 14.0389 57.6605 15.0284Z" fill="#323232"/>
<path d="M8.80664 31.1081C12.275 34.0375 20.0119 36.4676 16.2839 27.7966C15.0573 24.9436 13.0434 22.9721 13.8271 18.7282C14.2693 16.3337 15.9624 14.6393 16.0169 14.6016C16.0169 14.6016 15.0406 18.4633 15.3226 20.7151C16.0618 26.6228 21.4604 32.6681 16.7101 34.6886C14.672 35.5557 10.676 33.9101 8.80664 31.1081Z" fill="#323232" stroke="#323232" stroke-width="1.99619" stroke-miterlimit="10"/>
</svg>
