<svg width="48" height="47" viewBox="0 0 48 47" fill="none" xmlns="http://www.w3.org/2000/svg">
<path d="M7.89982 29.3864C7.62418 29.8913 5.23018 32.5491 4.07702 33.8169C2.39617 30.6137 1.44531 26.9679 1.44531 23.0996C1.56417 23.3761 1.71506 23.6189 1.89882 23.8127C2.97528 24.9482 8.26482 28.7171 7.89982 29.3864Z" fill="#278F2E"/>
<path d="M18.2347 5.97908C18.2347 5.97908 5.36618 14.3446 2.16211 17.3683C4.71036 7.38345 13.7654 0 24.5451 0C32.3138 0 39.1872 3.8346 43.3742 9.71506C41.9327 9.47566 40.0243 9.35006 38.0695 10.0345C38.0695 10.0345 32.5228 0.568152 18.2347 5.97908Z" fill="#278F2E"/>
<path d="M28.4888 45.8612C28.4459 43.1435 28.9137 37.687 32.9354 34.3026C32.9354 34.3026 41.9003 33.9915 43.8306 30.7276C45.7618 27.4628 46.2213 20.6416 44.4215 20.0457C42.6227 19.4497 40.0938 18.0251 40.3147 17.5505C40.3147 17.5505 43.4184 17.6079 43.8028 16.7801C44.0077 16.3392 44.7773 14.526 45.2788 12.9033C46.7936 15.9784 47.645 19.4396 47.645 23.0989C47.645 34.5116 39.3672 43.9907 28.4888 45.8612Z" fill="#278F2E"/>
<path d="M43.8084 30.8047C41.8781 34.0686 32.9132 34.3797 32.9132 34.3797C29.3155 37.4067 28.7381 42.1694 28.9227 45.0001L27.7602 45.9762C26.7099 46.1229 25.6377 46.1987 24.5469 46.1987C16.0465 46.1987 8.61841 41.608 4.60931 34.7699L4.30585 32.1812C5.71527 31.0879 7.65997 29.8623 7.87745 29.4635C8.24245 28.7942 2.95291 25.0254 1.87645 23.8899C1.70449 23.7087 1.56203 23.4853 1.44739 23.2307C1.43896 23.213 1.43053 23.1953 1.42294 23.1768C0.842146 21.8356 0.980391 19.6895 1.43896 18.2902C1.49965 18.1056 1.74664 17.8156 2.13945 17.4455C2.14114 17.4438 2.14367 17.4422 2.14536 17.4396C5.35701 14.4134 17.681 6.06057 17.681 6.06057C31.9691 0.649636 38.0477 10.1118 38.0477 10.1118C40.0025 9.42733 41.9109 9.55293 43.3524 9.79233C43.3819 9.79739 43.4114 9.80245 43.4409 9.8075C44.3007 9.95418 44.986 10.1371 45.4058 10.2028C45.9234 10.2829 45.7051 11.5145 45.2802 12.9037C45.2726 12.929 45.2642 12.9551 45.2566 12.9804C44.7551 14.6031 43.9854 16.4163 43.7806 16.8571C43.3962 17.6849 40.2925 17.6276 40.2925 17.6276C40.966 17.6394 44.9692 18.5439 45.0164 20.046C45.0762 21.941 45.7396 27.5399 43.8084 30.8047Z" fill="white"/>
<path d="M6.93359 25.7981V25.0723C9.67067 27.4958 15.364 29.4641 12.4221 22.2906C11.2858 19.5215 10.1124 17.9409 11.0084 14.6745C11.5479 12.7062 12.8857 11.5058 12.9287 11.4746C12.9287 11.4746 11.8598 14.5742 12.0824 16.4371C12.6657 21.3245 16.5306 26.5795 12.782 28.2511C11.1737 28.9685 9.22222 27.8229 6.93444 25.7981H6.93359Z" fill="black" stroke="black" stroke-width="0.592036" stroke-miterlimit="10"/>
<path d="M39.9024 17.8631C39.9024 17.8631 36.1555 16.0997 35.5898 11.627" stroke="black" stroke-width="2.66416" stroke-miterlimit="10"/>
<path d="M28.2061 12.1968C26.8448 11.4457 24.5898 13.876 24.5898 13.876C24.7272 15.062 27.0766 15.5189 28.0746 15.2593C29.0626 15.003 29.9317 14.3657 29.9317 14.3657C29.9317 14.3657 29.5329 12.9293 28.2061 12.1968ZM27.482 13.747C26.9931 13.7917 26.5817 13.6796 26.5413 13.2378C26.5008 12.7953 26.8684 12.4396 27.3581 12.3949C27.847 12.3502 28.2736 12.6326 28.314 13.0752C28.3545 13.5177 27.9718 13.7032 27.482 13.7478V13.747Z" fill="black"/>
<path d="M37.8729 13.2443C37.3873 13.3193 37.013 13.2063 36.9726 12.7646C36.9321 12.3221 37.2659 12.0085 37.7574 12.0287C38.2513 12.049 38.4579 12.0161 38.5514 12.5463C38.629 12.9838 38.3432 13.1718 37.8729 13.2443ZM42.2453 31.7446C40.5029 30.9126 41.4293 29.5487 41.8036 27.6664C42.0531 26.4138 42.1593 25.3011 42.1593 25.3011C43.5274 25.307 44.5432 24.3907 44.9528 23.8141C44.8011 26.9575 43.8612 30.4178 42.2453 31.7446ZM46.1625 21.1352C45.9897 19.3607 44.8163 18.0913 42.7687 17.4649C42.1205 17.2668 41.4841 17.1648 40.9749 17.1134C40.7246 17.0881 40.5349 16.8766 40.5349 16.6245C40.5349 16.6245 40.4464 13.8402 40.3621 13.4525C39.9895 11.7539 39.1938 10.1793 38.087 8.83813C35.886 6.17018 32.7249 4.39913 29.2899 3.87987C25.4435 3.29823 21.6949 4.17996 19.2284 5.02123C16.5655 5.92994 14.8206 6.96509 14.7481 7.00892L14.7169 7.02747L2.42069 16.4374L1.83146 16.8884C0.964906 17.5416 0.433844 18.5346 0.37568 19.6178C0.326789 20.5097 0.335219 21.775 0.501281 22.6542C0.593163 23.1389 0.916858 23.7062 1.47995 24.3654C2.02872 25.006 2.80339 25.7343 3.81241 26.5571C4.74556 27.3182 5.65005 27.9732 6.18533 28.3492L3.56964 32.7873C3.88322 33.4684 4.23051 34.131 4.60732 34.7733C5.39464 34.0762 9.8564 30.7482 9.8564 30.7482C11.9031 31.737 14.6183 31.5499 15.731 29.6145C16.8437 27.6782 16.7492 23.9582 14.9799 18.9915C13.2114 14.0265 16.509 9.16604 16.509 9.16604C11.0408 10.476 13.3934 17.8637 13.4819 18.1798C13.6059 18.6248 16.89 26.3446 14.4117 28.8718C11.9554 31.3762 4.49099 25.4688 4.36623 25.3727C4.36707 25.3735 4.36792 25.3752 4.3696 25.3769C3.0057 24.2356 1.8694 23.0807 1.7438 22.419C1.64686 21.9073 1.60134 21.109 1.61651 20.2787C1.61988 20.0823 1.62747 19.8834 1.63758 19.6861C1.6536 19.3961 1.72104 19.1163 1.83484 18.8575C1.99753 18.4824 2.25716 18.1511 2.59518 17.8965L15.425 8.07779C15.9147 7.79455 22.4451 4.12433 29.1011 5.12997C33.0115 5.72088 36.4584 8.17473 38.3635 11.7101C37.9462 11.7025 36.278 11.7826 36.0824 13.5039C36.0824 13.5039 37.2137 15.5422 39.1719 14.5458C39.2477 16.7054 39.2713 17.9437 39.2713 17.9437C38.1713 18.4006 37.4286 19.5867 37.6689 21.1082C38.3112 25.1771 41.3973 25.2597 41.3973 25.2597C38.2058 30.3976 34.351 32.2276 30.0966 32.3557C25.8422 32.483 23.5232 28.6543 22.3102 27.3781C21.098 26.101 20.3537 27.2078 20.3537 27.2078C22.864 30.6327 26.7779 32.8236 26.7779 32.8236C28.4545 33.8031 30.1202 34.319 31.705 34.523C30.3899 36.2215 27.1479 40.9884 27.7523 45.9787C28.1721 45.9206 28.5886 45.8506 29.0008 45.7705C28.4394 40.8451 32.1795 35.9358 33.0174 34.9074C34.6443 34.7978 41.4099 34.2431 43.3858 32.5184C44.7059 31.3653 45.4064 29.134 45.7621 27.4641C46.1996 25.4132 46.3488 23.047 46.1625 21.1352Z" fill="black"/>
<path d="M45.8202 9.09133C45.3903 8.85277 44.3627 8.83001 43.4844 8.82917C39.9987 8.8258 38.8961 8.94718 37.4151 9.55917C35.655 10.2883 34.2447 9.93766 29.1094 9.2262C29.1094 9.2262 24.8475 8.60073 20.3899 10.0869L14.7387 12.55L14.2363 14.944C14.2363 14.944 20.4978 11.8208 20.8164 12.0745C21.0567 12.2667 22.0505 15.1716 22.5209 16.5768C22.8859 17.6676 23.6597 18.7398 24.7893 18.9581C30.6613 20.0936 32.6296 17.8286 33.857 12.4657H34.9022C34.9022 12.4657 36.0107 14.5461 36.3976 15.1235C36.7407 15.636 37.909 17.3902 39.4137 17.7856C39.6396 17.9567 43.626 18.4212 44.9401 16.2834C45.4425 15.4666 46.8815 9.67971 45.8202 9.09133ZM32.4914 12.8779C32.4914 12.8779 32.3767 13.8321 31.2497 16.1806C30.1176 18.5383 25.3144 19.0525 23.9118 16.6113C22.8496 14.7627 22.9087 12.7304 23.0005 11.8512C23.0351 11.5174 23.2113 11.2147 23.4835 11.0175C25.2023 9.76906 29.0403 10.0506 30.9125 10.5446C32.9592 11.0824 32.4914 12.8779 32.4914 12.8779ZM45.0135 11.9725C44.9418 13.2538 44.4799 14.6456 44.2767 15.2053C44.1882 15.4481 44.0736 15.6824 43.9218 15.8923C43.3141 16.7352 42.3801 17.0665 41.5877 17.1862C41.5843 17.1862 41.581 17.1879 41.5776 17.1879C41.425 17.2166 41.2724 17.2317 41.1224 17.2351C41.1182 17.236 41.114 17.236 41.1106 17.236C39.9305 17.2613 38.8784 16.6071 38.7537 16.527C38.7453 16.5211 38.741 16.5186 38.741 16.5186C37.0239 15.3031 36.503 13.3533 36.3622 12.3578C36.2644 11.6741 36.6269 11.0074 37.2549 10.7199C39.0015 9.91911 42.085 10.0413 42.085 10.0413C42.8201 10.0649 43.3706 10.1518 43.7819 10.2639C44.5431 10.4721 45.0573 11.1844 45.0135 11.9725Z" fill="black"/>
</svg>
