<svg width="34" height="34" viewBox="0 0 34 34" fill="none" xmlns="http://www.w3.org/2000/svg">
<path d="M17.2631 34H17.2532C12.1801 33.966 8.28004 32.2929 5.65921 29.0289C3.32879 26.1233 2.12463 22.0802 2.08496 17.0142V16.9901C2.12746 11.9198 3.33021 7.88092 5.66204 4.97392C8.28005 1.70708 12.183 0.034 17.2546 0H17.2745C21.1646 0.0283333 24.4187 1.02708 26.9446 2.97217C29.3204 4.79967 30.9935 7.40633 31.9157 10.7171L29.0257 11.5232C27.4617 5.91317 23.5035 3.04583 17.2617 3.00192C13.1392 3.03308 10.0225 4.32792 7.99671 6.851C6.10121 9.214 5.12229 12.6282 5.08404 17C5.12229 21.3718 6.10121 24.786 7.99813 27.149C10.024 29.6749 13.142 30.9712 17.2631 30.9981C20.979 30.9697 23.437 30.1042 25.4798 28.101C27.813 25.8159 27.772 23.0109 27.024 21.3038C26.5848 20.298 25.7872 19.4622 24.7091 18.8247C24.4371 20.74 23.828 22.2898 22.8901 23.46C21.635 25.0212 19.8585 25.874 17.606 25.9958C15.9031 26.0879 14.2612 25.687 12.989 24.8611C11.4831 23.885 10.602 22.3961 10.507 20.6621C10.415 18.9762 11.085 17.425 12.3912 16.2959C13.6379 15.2192 15.3931 14.586 17.4671 14.467C18.8963 14.3794 20.3308 14.4469 21.7455 14.6682C21.567 13.617 21.2142 12.7812 20.683 12.1791C19.9562 11.3489 18.83 10.9282 17.341 10.9182H17.3C16.1043 10.9182 14.478 11.2469 13.4452 12.7882L10.9561 11.1166C12.3445 9.05675 14.5941 7.92058 17.3 7.92058H17.3623C21.8871 7.94892 24.583 10.7185 24.8522 15.5536C25.0062 15.6197 25.1577 15.6868 25.307 15.7548C27.4178 16.7464 28.962 18.2495 29.7751 20.1039C30.9042 22.6822 31.009 26.8898 27.5821 30.2444C24.9613 32.8086 21.7823 33.9674 17.273 33.9986L17.2631 34ZM18.684 17.4392C18.3422 17.4392 17.9932 17.4491 17.6371 17.4689C15.0361 17.6148 13.4155 18.8091 13.5061 20.5048C13.601 22.2842 15.5631 23.1101 17.4501 23.0081C19.1841 22.916 21.4423 22.2388 21.822 17.7522C20.79 17.537 19.7382 17.432 18.684 17.4392Z" fill="white"/>
</svg>
