<svg width="25" height="31" viewBox="0 0 25 31" fill="none" xmlns="http://www.w3.org/2000/svg">
<path fill-rule="evenodd" clip-rule="evenodd" d="M3.40287 3.75341C5.55148 1.46313 8.66676 0.110352 12.5237 0.110352C18.864 0.110352 23.0681 3.76452 24.3987 8.82841C24.4923 9.18479 24.4404 9.56375 24.2546 9.88191C24.0687 10.2001 23.7641 10.4314 23.4077 10.5249C23.0513 10.6185 22.6724 10.5667 22.3542 10.3808C22.0361 10.195 21.8048 9.89035 21.7112 9.53396C20.7015 5.69646 17.6056 2.88813 12.5223 2.88813C9.34731 2.88813 6.99453 3.98396 5.43064 5.65202C3.85287 7.33535 2.9737 9.71174 2.9737 12.4367V15.5617C2.9737 18.2867 3.85287 20.6631 5.43064 22.3451C6.99453 24.0159 9.34731 25.1104 12.5223 25.1104C14.8209 25.1104 16.6445 24.577 18.0445 23.7145C19.4543 22.8465 20.2945 21.6951 20.5306 20.3742C20.8015 18.852 20.4681 17.8076 19.8945 17.0534C19.58 16.6476 19.1974 16.2994 18.764 16.0242C18.5765 17.0645 18.2418 18.0465 17.7362 18.8159C15.8723 21.6479 12.3084 21.8909 9.95842 20.9534C8.6862 20.4465 7.59592 19.059 7.25704 17.5715C7.05128 16.7189 7.11981 15.8231 7.45287 15.0117C7.82092 14.1284 8.50287 13.3756 9.4737 12.8034C10.4348 12.2354 11.8626 11.9742 13.2779 11.9354C14.1306 11.9117 15.0556 11.9687 15.9862 12.1201C15.7918 11.2173 15.4626 10.5437 15.0918 10.1979C14.4195 9.57285 13.3056 9.13258 12.189 9.13952C11.1098 9.14785 10.1945 9.56313 9.64731 10.4381C9.45208 10.7505 9.14076 10.9725 8.78184 11.0553C8.42292 11.1382 8.04579 11.075 7.73342 10.8798C7.42106 10.6846 7.19904 10.3732 7.11621 10.0143C7.03338 9.6554 7.09653 9.27827 7.29176 8.96591C8.45426 7.10757 10.3695 6.37563 12.1709 6.36174C13.9348 6.34924 15.7515 7.0173 16.9848 8.16452C18.232 9.32563 18.7681 11.2298 18.907 12.9617C20.1209 13.4909 21.2681 14.2673 22.1084 15.3742C23.1931 16.8048 23.6598 18.6492 23.2654 20.8617C22.8626 23.1173 21.439 24.8867 19.5015 26.0798C17.6015 27.2492 15.257 27.8881 12.5223 27.8881C8.66676 27.8881 5.55009 26.5354 3.40426 24.2451C1.27092 21.9701 0.195923 18.8784 0.195923 15.5617V12.4367C0.195923 9.12007 1.27092 6.02841 3.40426 3.75341H3.40287ZM16.1112 14.9715C15.2053 14.7761 14.2793 14.6894 13.3529 14.7131C12.1154 14.7465 11.2473 14.9812 10.8848 15.1951C10.3515 15.5104 10.1209 15.8312 10.0181 16.0798C9.90849 16.3585 9.89001 16.6649 9.96537 16.9548C10.1348 17.6992 10.6945 18.2576 10.9876 18.3729C12.5515 18.9979 14.5084 18.6673 15.4154 17.2895C15.7418 16.7923 16.0015 15.9562 16.1098 14.9715H16.1112Z" fill="#5B5B5B"/>
</svg>
