<svg width="25" height="25" viewBox="0 0 25 25" fill="none" xmlns="http://www.w3.org/2000/svg">
<mask id="mask0_41958_25812" style="mask-type:alpha" maskUnits="userSpaceOnUse" x="0" y="0" width="25" height="25">
<rect x="0.800781" y="0.9375" width="24" height="24" fill="#D9D9D9"/>
</mask>
<g mask="url(#mask0_41958_25812)">
<path d="M16.8008 17.9375C18.1841 17.9375 19.3633 17.45 20.3383 16.475C21.3133 15.5 21.8008 14.3208 21.8008 12.9375C21.8008 11.5542 21.3133 10.375 20.3383 9.4C19.3633 8.425 18.1841 7.9375 16.8008 7.9375C16.3508 7.9375 15.9133 7.99583 15.4883 8.1125C15.0633 8.22917 14.6674 8.39583 14.3008 8.6125C14.7841 9.2125 15.1549 9.87917 15.4133 10.6125C15.6716 11.3458 15.8008 12.1208 15.8008 12.9375C15.8008 13.7542 15.6716 14.5292 15.4133 15.2625C15.1549 15.9958 14.7841 16.6625 14.3008 17.2625C14.6674 17.4792 15.0633 17.6458 15.4883 17.7625C15.9133 17.8792 16.3508 17.9375 16.8008 17.9375ZM12.8008 15.9375C13.1174 15.5208 13.3633 15.0583 13.5383 14.55C13.7133 14.0417 13.8008 13.5042 13.8008 12.9375C13.8008 12.3708 13.7133 11.8333 13.5383 11.325C13.3633 10.8167 13.1174 10.3542 12.8008 9.9375C12.4841 10.3542 12.2383 10.8167 12.0633 11.325C11.8883 11.8333 11.8008 12.3708 11.8008 12.9375C11.8008 13.5042 11.8883 14.0417 12.0633 14.55C12.2383 15.0583 12.4841 15.5208 12.8008 15.9375ZM8.80078 17.9375C9.25078 17.9375 9.68828 17.8792 10.1133 17.7625C10.5383 17.6458 10.9341 17.4792 11.3008 17.2625C10.8174 16.6625 10.4466 15.9958 10.1883 15.2625C9.92995 14.5292 9.80078 13.7542 9.80078 12.9375C9.80078 12.1208 9.92995 11.3458 10.1883 10.6125C10.4466 9.87917 10.8174 9.2125 11.3008 8.6125C10.9341 8.39583 10.5383 8.22917 10.1133 8.1125C9.68828 7.99583 9.25078 7.9375 8.80078 7.9375C7.41745 7.9375 6.23828 8.425 5.26328 9.4C4.28828 10.375 3.80078 11.5542 3.80078 12.9375C3.80078 14.3208 4.28828 15.5 5.26328 16.475C6.23828 17.45 7.41745 17.9375 8.80078 17.9375ZM8.80078 19.9375C6.85078 19.9375 5.19661 19.2583 3.83828 17.9C2.47995 16.5417 1.80078 14.8875 1.80078 12.9375C1.80078 10.9875 2.47995 9.33333 3.83828 7.975C5.19661 6.61667 6.85078 5.9375 8.80078 5.9375C9.55078 5.9375 10.2633 6.04583 10.9383 6.2625C11.6133 6.47917 12.2341 6.7875 12.8008 7.1875C13.3674 6.7875 13.9883 6.47917 14.6633 6.2625C15.3383 6.04583 16.0508 5.9375 16.8008 5.9375C18.7508 5.9375 20.4049 6.61667 21.7633 7.975C23.1216 9.33333 23.8008 10.9875 23.8008 12.9375C23.8008 14.8875 23.1216 16.5417 21.7633 17.9C20.4049 19.2583 18.7508 19.9375 16.8008 19.9375C16.0508 19.9375 15.3383 19.8292 14.6633 19.6125C13.9883 19.3958 13.3674 19.0875 12.8008 18.6875C12.2341 19.0875 11.6133 19.3958 10.9383 19.6125C10.2633 19.8292 9.55078 19.9375 8.80078 19.9375Z" fill="#64C66B"/>
</g>
</svg>
