<svg width="25" height="25" viewBox="0 0 25 25" fill="none" xmlns="http://www.w3.org/2000/svg">
<mask id="mask0_41958_6782" style="mask-type:alpha" maskUnits="userSpaceOnUse" x="0" y="0" width="25" height="25">
<rect x="0.400391" y="0.9375" width="24" height="24" fill="#D9D9D9"/>
</mask>
<g mask="url(#mask0_41958_6782)">
<path d="M7.90039 17.4375L14.9004 15.4375L16.9004 8.4375L9.90039 10.4375L7.90039 17.4375ZM12.4004 14.4375C11.9837 14.4375 11.6296 14.2917 11.3379 14C11.0462 13.7083 10.9004 13.3542 10.9004 12.9375C10.9004 12.5208 11.0462 12.1667 11.3379 11.875C11.6296 11.5833 11.9837 11.4375 12.4004 11.4375C12.8171 11.4375 13.1712 11.5833 13.4629 11.875C13.7546 12.1667 13.9004 12.5208 13.9004 12.9375C13.9004 13.3542 13.7546 13.7083 13.4629 14C13.1712 14.2917 12.8171 14.4375 12.4004 14.4375ZM12.4004 22.9375C11.0171 22.9375 9.71706 22.675 8.50039 22.15C7.28372 21.625 6.22539 20.9125 5.32539 20.0125C4.42539 19.1125 3.71289 18.0542 3.18789 16.8375C2.66289 15.6208 2.40039 14.3208 2.40039 12.9375C2.40039 11.5542 2.66289 10.2542 3.18789 9.0375C3.71289 7.82083 4.42539 6.7625 5.32539 5.8625C6.22539 4.9625 7.28372 4.25 8.50039 3.725C9.71706 3.2 11.0171 2.9375 12.4004 2.9375C13.7837 2.9375 15.0837 3.2 16.3004 3.725C17.5171 4.25 18.5754 4.9625 19.4754 5.8625C20.3754 6.7625 21.0879 7.82083 21.6129 9.0375C22.1379 10.2542 22.4004 11.5542 22.4004 12.9375C22.4004 14.3208 22.1379 15.6208 21.6129 16.8375C21.0879 18.0542 20.3754 19.1125 19.4754 20.0125C18.5754 20.9125 17.5171 21.625 16.3004 22.15C15.0837 22.675 13.7837 22.9375 12.4004 22.9375ZM12.4004 20.9375C14.6171 20.9375 16.5046 20.1583 18.0629 18.6C19.6212 17.0417 20.4004 15.1542 20.4004 12.9375C20.4004 10.7208 19.6212 8.83333 18.0629 7.275C16.5046 5.71667 14.6171 4.9375 12.4004 4.9375C10.1837 4.9375 8.29622 5.71667 6.73789 7.275C5.17956 8.83333 4.40039 10.7208 4.40039 12.9375C4.40039 15.1542 5.17956 17.0417 6.73789 18.6C8.29622 20.1583 10.1837 20.9375 12.4004 20.9375Z" fill="#64C66B"/>
</g>
</svg>
